# xmcd CD database file
#
# Track frame offsets:
#	150
#	12631
#	30787
#	42743
#	58507
#	74891
#	90332
#	102388
#	111998
#	124635
#	135908
#	148642
#	161283
#
# Disc length: 2324 seconds
#
# Revision: 0
# Processed by: cddbd v1.5.2PL0 Copyright (c) Steve Scherf et al.
# Submitted via: CDex 1.51
#
DISCID=af09120d
DTITLE=Canyon, George - Classics
DYEAR=2007
DGENRE=Country
TTITLE0=Ring of Fire
TTITLE1=Seven Spanish Angels
TTITLE2=Good Ol' Boys
TTITLE3=Luckenbach, Texas (Back to the Basics of Love)
TTITLE4=Good Hearted Woman
TTITLE5=He Stopped Loving Her Today
TTITLE6=My Best Friend
TTITLE7=Kiss an Angel Good Morning
TTITLE8=Okie from Muskogee
TTITLE9=Hello Darlin'
TTITLE10=Release Me
TTITLE11=Folsom Prison Blues
TTITLE12=Battle of New Orleans, The
EXTD=YEAR: 2007
EXTT0=
EXTT1=
EXTT2=
EXTT3=
EXTT4=
EXTT5=
EXTT6=
EXTT7=
EXTT8=
EXTT9=
EXTT10=
EXTT11=
EXTT12=
PLAYORDER=
